<svg width="50" height="50" viewBox="0 0 50 50" fill="none" xmlns="http://www.w3.org/2000/svg"><path fill="#3DA7ED" d="M0 0h50v50H0z"/><path stroke="#fff" d="M0 0h50v50H0z"/><path d="M25 10c-8.269 0-15 6.726-15 15 0 8.269 6.731 15 15 15s15-6.731 15-15c0-8.275-6.731-15-15-15zM11.512 24.999c0-1.954.417-3.81 1.168-5.486l6.435 17.625c-4.501-2.19-7.602-6.803-7.602-12.14zM25 38.487c-1.325 0-2.601-.193-3.81-.55l4.046-11.758 4.144 11.359c.03.067.061.126.096.187-1.397.49-2.903.762-4.476.762zm1.856-19.806v-.001c.81-.043 1.541-.126 1.541-.126.727-.085.642-1.155-.084-1.114 0 0-2.184.169-3.593.169-1.325 0-3.551-.169-3.551-.169-.725-.043-.809 1.071-.084 1.114 0 0 .689.085 1.415.126l2.099 5.758-2.951 8.848-4.91-14.606c.81-.043 1.542-.126 1.542-.126.726-.085.641-1.155-.085-1.114 0 0-2.184.169-3.593.169-.253 0-.55-.007-.87-.018 2.413-3.66 6.556-6.079 11.268-6.079 3.509 0 6.707 1.344 9.109 3.538a1.655 1.655 0 00-.175-.011c-1.325 0-2.263 1.155-2.263 2.395 0 1.112.642 2.05 1.325 3.163.514.895 1.114 2.05 1.114 3.72 0 1.155-.441 2.492-1.029 4.362l-1.344 4.494-4.88-14.492zm9.981-.152A13.433 13.433 0 0138.49 25c0 4.978-2.698 9.32-6.708 11.655l-.001-.001 4.119-11.91c.767-1.924 1.029-3.459 1.029-4.832 0-.495-.03-.956-.09-1.384z" fill="#fff"/></svg>