<svg width="50" height="50" viewBox="0 0 50 50" fill="none" xmlns="http://www.w3.org/2000/svg"><path fill="#95BF46" d="M0 0h50v50H0z"/><path stroke="#fff" d="M0 0h50v50H0z"/><g clip-path="url(#clip0)"><path d="M35.11 14.891a.29.29 0 00-.261-.242c-.11-.01-2.415-.18-2.415-.18s-1.601-1.58-1.777-1.756c-.176-.175-.52-.122-.653-.082-.02.005-.35.107-.896.275-.535-1.532-1.48-2.939-3.14-2.939a2.5 2.5 0 00-.14.005c-.473-.622-1.058-.892-1.563-.892-3.87 0-5.718 4.812-6.297 7.257l-2.709.836c-.839.262-.865.288-.975 1.075-.083.595-2.28 17.488-2.28 17.488l17.111 3.19 9.27-1.995s-3.254-21.89-3.274-22.04zm-6.948-1.694l-1.448.446.002-.311c0-.952-.133-1.718-.346-2.326.855.107 1.425 1.076 1.792 2.19zm-2.854-2.002c.238.593.393 1.444.393 2.593l-.001.167-2.99.921c.575-2.21 1.654-3.278 2.598-3.68zm-1.15-1.082c.167 0 .336.056.497.166-1.24.58-2.57 2.043-3.13 4.962l-2.364.728c.657-2.226 2.218-5.856 4.997-5.856z" fill="#fff"/><path d="M34.85 14.649c-.11-.01-2.416-.18-2.416-.18s-1.601-1.58-1.777-1.756a.44.44 0 00-.247-.113l-1.294 26.325 9.27-1.995s-3.254-21.889-3.275-22.039a.29.29 0 00-.262-.242z" fill="#C4DF92"/><path d="M25.968 19.745l-1.143 3.383s-1.002-.532-2.23-.532c-1.8 0-1.89 1.124-1.89 1.407 0 1.545 4.049 2.137 4.049 5.756 0 2.847-1.816 4.68-4.263 4.68-2.937 0-4.44-1.818-4.44-1.818l.787-2.585s1.544 1.319 2.847 1.319c.851 0 1.198-.667 1.198-1.154 0-2.016-3.322-2.106-3.322-5.417 0-2.787 2.011-5.485 6.07-5.485 1.564 0 2.337.446 2.337.446z" fill="#95BF46"/></g><defs><clipPath id="clip0"><path fill="#fff" transform="translate(12 9)" d="M0 0h26.441v30H0z"/></clipPath></defs></svg>